<mxfile host="app.diagrams.net" modified="2022-11-16T10:33:22.664Z" agent="5.0 (Windows NT 10.0; Win64; x64) AppleWebKit/537.36 (KHTML, like Gecko) Chrome/107.0.0.0 Safari/537.36" etag="B84PqXu-5QCZrlbTww1c" version="20.5.3" type="github">
  <diagram id="C5RBs43oDa-KdzZeNtuy" name="Page-1">
    <mxGraphModel dx="431" dy="757" grid="1" gridSize="10" guides="1" tooltips="1" connect="1" arrows="1" fold="1" page="1" pageScale="1" pageWidth="827" pageHeight="1169" math="0" shadow="0">
      <root>
        <mxCell id="WIyWlLk6GJQsqaUBKTNV-0" />
        <mxCell id="WIyWlLk6GJQsqaUBKTNV-1" parent="WIyWlLk6GJQsqaUBKTNV-0" />
        <mxCell id="IQRa93ZukTJVfMaeJT7k-0" value="Developing big number&lt;br&gt;(Method 1)" style="rounded=0;whiteSpace=wrap;html=1;" vertex="1" parent="WIyWlLk6GJQsqaUBKTNV-1">
          <mxGeometry x="150" y="80" width="120" height="60" as="geometry" />
        </mxCell>
        <mxCell id="IQRa93ZukTJVfMaeJT7k-4" value="" style="edgeStyle=orthogonalEdgeStyle;rounded=0;orthogonalLoop=1;jettySize=auto;html=1;" edge="1" parent="WIyWlLk6GJQsqaUBKTNV-1" source="IQRa93ZukTJVfMaeJT7k-1" target="IQRa93ZukTJVfMaeJT7k-2">
          <mxGeometry relative="1" as="geometry" />
        </mxCell>
        <mxCell id="IQRa93ZukTJVfMaeJT7k-6" style="edgeStyle=orthogonalEdgeStyle;rounded=0;orthogonalLoop=1;jettySize=auto;html=1;entryX=0;entryY=0.5;entryDx=0;entryDy=0;" edge="1" parent="WIyWlLk6GJQsqaUBKTNV-1" source="IQRa93ZukTJVfMaeJT7k-1" target="IQRa93ZukTJVfMaeJT7k-0">
          <mxGeometry relative="1" as="geometry" />
        </mxCell>
        <mxCell id="IQRa93ZukTJVfMaeJT7k-15" style="edgeStyle=orthogonalEdgeStyle;rounded=0;orthogonalLoop=1;jettySize=auto;html=1;exitX=1;exitY=0.5;exitDx=0;exitDy=0;entryX=0.017;entryY=0.117;entryDx=0;entryDy=0;entryPerimeter=0;" edge="1" parent="WIyWlLk6GJQsqaUBKTNV-1" source="IQRa93ZukTJVfMaeJT7k-1" target="IQRa93ZukTJVfMaeJT7k-13">
          <mxGeometry relative="1" as="geometry" />
        </mxCell>
        <mxCell id="IQRa93ZukTJVfMaeJT7k-1" value="How many big numbers?" style="shape=parallelogram;perimeter=parallelogramPerimeter;whiteSpace=wrap;html=1;fixedSize=1;" vertex="1" parent="WIyWlLk6GJQsqaUBKTNV-1">
          <mxGeometry x="40" y="180" width="120" height="60" as="geometry" />
        </mxCell>
        <mxCell id="IQRa93ZukTJVfMaeJT7k-14" style="edgeStyle=orthogonalEdgeStyle;rounded=0;orthogonalLoop=1;jettySize=auto;html=1;entryX=0;entryY=0.5;entryDx=0;entryDy=0;" edge="1" parent="WIyWlLk6GJQsqaUBKTNV-1" source="IQRa93ZukTJVfMaeJT7k-2" target="IQRa93ZukTJVfMaeJT7k-13">
          <mxGeometry relative="1" as="geometry" />
        </mxCell>
        <mxCell id="IQRa93ZukTJVfMaeJT7k-2" value="Small numbers = 6 - big numbers" style="rounded=0;whiteSpace=wrap;html=1;" vertex="1" parent="WIyWlLk6GJQsqaUBKTNV-1">
          <mxGeometry x="40" y="260" width="120" height="60" as="geometry" />
        </mxCell>
        <mxCell id="IQRa93ZukTJVfMaeJT7k-9" style="edgeStyle=orthogonalEdgeStyle;rounded=0;orthogonalLoop=1;jettySize=auto;html=1;entryX=1;entryY=0.5;entryDx=0;entryDy=0;" edge="1" parent="WIyWlLk6GJQsqaUBKTNV-1" source="IQRa93ZukTJVfMaeJT7k-7" target="IQRa93ZukTJVfMaeJT7k-0">
          <mxGeometry relative="1" as="geometry" />
        </mxCell>
        <mxCell id="IQRa93ZukTJVfMaeJT7k-16" style="edgeStyle=orthogonalEdgeStyle;rounded=0;orthogonalLoop=1;jettySize=auto;html=1;exitX=0.5;exitY=1;exitDx=0;exitDy=0;entryX=0.592;entryY=0.033;entryDx=0;entryDy=0;entryPerimeter=0;" edge="1" parent="WIyWlLk6GJQsqaUBKTNV-1" source="IQRa93ZukTJVfMaeJT7k-7" target="IQRa93ZukTJVfMaeJT7k-13">
          <mxGeometry relative="1" as="geometry" />
        </mxCell>
        <mxCell id="IQRa93ZukTJVfMaeJT7k-7" value="Make list of possible big and small numbers" style="rounded=0;whiteSpace=wrap;html=1;" vertex="1" parent="WIyWlLk6GJQsqaUBKTNV-1">
          <mxGeometry x="220" y="150" width="120" height="70" as="geometry" />
        </mxCell>
        <mxCell id="IQRa93ZukTJVfMaeJT7k-12" value="Target number = made with list of numbers and a mix of operands&amp;nbsp;" style="shape=parallelogram;perimeter=parallelogramPerimeter;whiteSpace=wrap;html=1;fixedSize=1;" vertex="1" parent="WIyWlLk6GJQsqaUBKTNV-1">
          <mxGeometry x="30" y="440" width="160" height="100" as="geometry" />
        </mxCell>
        <mxCell id="IQRa93ZukTJVfMaeJT7k-13" value="List of small and big numbers randomly chosen" style="rounded=0;whiteSpace=wrap;html=1;" vertex="1" parent="WIyWlLk6GJQsqaUBKTNV-1">
          <mxGeometry x="210" y="310" width="120" height="60" as="geometry" />
        </mxCell>
      </root>
    </mxGraphModel>
  </diagram>
</mxfile>
